<svg width="7" height="6" viewBox="0 0 7 6" fill="none" xmlns="http://www.w3.org/2000/svg">
<path d="M0.777778 0.666656C0.571498 0.666656 0.373667 0.748601 0.227806 0.894462C0.0819442 1.04032 0 1.23815 0 1.44443V1.89593L3.28261 3.53743C3.35011 3.57118 3.42454 3.58875 3.5 3.58875C3.57546 3.58875 3.64989 3.57118 3.71739 3.53743L7 1.89632V1.44443C7 1.23815 6.91806 1.04032 6.77219 0.894462C6.62633 0.748601 6.4285 0.666656 6.22222 0.666656H0.777778Z" fill="#242124"/>
<path d="M7 2.54849L3.97833 4.05933C3.82982 4.1336 3.66605 4.17226 3.5 4.17226C3.33395 4.17226 3.17018 4.1336 3.02167 4.05933L0 2.54849V4.55555C0 4.76183 0.0819442 4.95966 0.227806 5.10552C0.373667 5.25138 0.571498 5.33333 0.777778 5.33333H6.22222C6.4285 5.33333 6.62633 5.25138 6.77219 5.10552C6.91806 4.95966 7 4.76183 7 4.55555V2.54849Z" fill="#242124"/>
</svg>
