<svg width="22" height="20" fill="none" xmlns="http://www.w3.org/2000/svg"><path d="M21 7H1m12 8.5 2.5-2.5-2.5-2.5m-4 0L6.5 13 9 15.5M1 5.8v8.4c0 1.68 0 2.52.327 3.162a3 3 0 0 0 1.311 1.311C3.28 19 4.12 19 5.8 19h10.4c1.68 0 2.52 0 3.162-.327a3 3 0 0 0 1.311-1.311C21 16.72 21 15.88 21 14.2V5.8c0-1.68 0-2.52-.327-3.162a3 3 0 0 0-1.311-1.311C18.72 1 17.88 1 16.2 1H5.8c-1.68 0-2.52 0-3.162.327a3 3 0 0 0-1.311 1.311C1 3.28 1 4.12 1 5.8Z" stroke="#000" stroke-width="2" stroke-linecap="round" stroke-linejoin="round"/></svg>